<svg width="192" height="51" viewBox="0 0 192 51" fill="none" xmlns="http://www.w3.org/2000/svg">
<path d="M0.875313 21.2C0.875313 17.904 1.61131 14.96 3.08331 12.368C4.58731 9.744 6.61931 7.712 9.17931 6.272C11.7713 4.8 14.6673 4.064 17.8673 4.064C21.6113 4.064 24.8913 5.024 27.7073 6.944C30.5233 8.864 32.4913 11.52 33.6113 14.912H25.8833C25.1153 13.312 24.0273 12.112 22.6193 11.312C21.2433 10.512 19.6433 10.112 17.8193 10.112C15.8673 10.112 14.1233 10.576 12.5873 11.504C11.0833 12.4 9.89931 13.68 9.03531 15.344C8.20331 17.008 7.78731 18.96 7.78731 21.2C7.78731 23.408 8.20331 25.36 9.03531 27.056C9.89931 28.72 11.0833 30.016 12.5873 30.944C14.1233 31.84 15.8673 32.288 17.8193 32.288C19.6433 32.288 21.2433 31.888 22.6193 31.088C24.0273 30.256 25.1153 29.04 25.8833 27.44H33.6113C32.4913 30.864 30.5233 33.536 27.7073 35.456C24.9233 37.344 21.6433 38.288 17.8673 38.288C14.6673 38.288 11.7713 37.568 9.17931 36.128C6.61931 34.656 4.58731 32.624 3.08331 30.032C1.61131 27.44 0.875313 24.496 0.875313 21.2ZM37.6231 24.608C37.6231 21.92 38.1511 19.536 39.2071 17.456C40.2951 15.376 41.7511 13.776 43.5751 12.656C45.4311 11.536 47.4951 10.976 49.7671 10.976C51.7511 10.976 53.4791 11.376 54.9511 12.176C56.4551 12.976 57.6551 13.984 58.5511 15.2V11.408H65.3191V38H58.5511V34.112C57.6871 35.36 56.4871 36.4 54.9511 37.232C53.4471 38.032 51.7031 38.432 49.7191 38.432C47.4791 38.432 45.4311 37.856 43.5751 36.704C41.7511 35.552 40.2951 33.936 39.2071 31.856C38.1511 29.744 37.6231 27.328 37.6231 24.608ZM58.5511 24.704C58.5511 23.072 58.2311 21.68 57.5911 20.528C56.9511 19.344 56.0871 18.448 54.9991 17.84C53.9111 17.2 52.7431 16.88 51.4951 16.88C50.2471 16.88 49.0951 17.184 48.0391 17.792C46.9831 18.4 46.1191 19.296 45.4471 20.48C44.8071 21.632 44.4871 23.008 44.4871 24.608C44.4871 26.208 44.8071 27.616 45.4471 28.832C46.1191 30.016 46.9831 30.928 48.0391 31.568C49.1271 32.208 50.2791 32.528 51.4951 32.528C52.7431 32.528 53.9111 32.224 54.9991 31.616C56.0871 30.976 56.9511 30.08 57.5911 28.928C58.2311 27.744 58.5511 26.336 58.5511 24.704ZM86.6183 11.024C89.7863 11.024 92.3463 12.032 94.2983 14.048C96.2503 16.032 97.2263 18.816 97.2263 22.4V38H90.5063V23.312C90.5063 21.2 89.9783 19.584 88.9223 18.464C87.8663 17.312 86.4263 16.736 84.6023 16.736C82.7463 16.736 81.2743 17.312 80.1863 18.464C79.1303 19.584 78.6023 21.2 78.6023 23.312V38H71.8823V11.408H78.6023V14.72C79.4983 13.568 80.6343 12.672 82.0103 12.032C83.4183 11.36 84.9543 11.024 86.6183 11.024ZM101.889 24.608C101.889 21.92 102.417 19.536 103.473 17.456C104.561 15.376 106.033 13.776 107.889 12.656C109.745 11.536 111.809 10.976 114.081 10.976C115.809 10.976 117.457 11.36 119.025 12.128C120.593 12.864 121.841 13.856 122.769 15.104V2.48H129.585V38H122.769V34.064C121.937 35.376 120.769 36.432 119.265 37.232C117.761 38.032 116.017 38.432 114.033 38.432C111.793 38.432 109.745 37.856 107.889 36.704C106.033 35.552 104.561 33.936 103.473 31.856C102.417 29.744 101.889 27.328 101.889 24.608ZM122.817 24.704C122.817 23.072 122.497 21.68 121.857 20.528C121.217 19.344 120.353 18.448 119.265 17.84C118.177 17.2 117.009 16.88 115.761 16.88C114.513 16.88 113.361 17.184 112.305 17.792C111.249 18.4 110.385 19.296 109.713 20.48C109.073 21.632 108.753 23.008 108.753 24.608C108.753 26.208 109.073 27.616 109.713 28.832C110.385 30.016 111.249 30.928 112.305 31.568C113.393 32.208 114.545 32.528 115.761 32.528C117.009 32.528 118.177 32.224 119.265 31.616C120.353 30.976 121.217 30.08 121.857 28.928C122.497 27.744 122.817 26.336 122.817 24.704ZM139.556 8.24C138.372 8.24 137.38 7.872 136.58 7.136C135.812 6.368 135.428 5.424 135.428 4.304C135.428 3.184 135.812 2.256 136.58 1.52C137.38 0.751998 138.372 0.367998 139.556 0.367998C140.74 0.367998 141.716 0.751998 142.484 1.52C143.284 2.256 143.684 3.184 143.684 4.304C143.684 5.424 143.284 6.368 142.484 7.136C141.716 7.872 140.74 8.24 139.556 8.24ZM142.868 11.408V38H136.148V11.408H142.868ZM161.699 16.928H157.043V38H150.227V16.928H147.203V11.408H150.227V10.064C150.227 6.8 151.155 4.4 153.011 2.864C154.867 1.328 157.667 0.607999 161.411 0.704V6.368C159.779 6.336 158.643 6.608 158.003 7.184C157.363 7.76 157.043 8.8 157.043 10.304V11.408H161.699V16.928ZM191.494 11.408L175.03 50.576H167.878L173.638 37.328L162.982 11.408H170.518L177.382 29.984L184.342 11.408H191.494Z" fill="#F87171"/>
</svg>
