<svg width="463" height="455" viewBox="0 0 463 455" fill="none" xmlns="http://www.w3.org/2000/svg">
<path d="M306.925 49.4106L316.685 75.7864L343.06 85.5463L316.685 95.3062L306.925 121.682L297.165 95.3062L270.789 85.5463L297.165 75.7864L306.925 49.4106Z" stroke="#1CC8EE" stroke-width="8" stroke-linecap="round"/>
<path d="M241.573 351.135C265.396 356.821 279.324 356.821 303.148 351.135C326.971 345.45 342.57 329.246 342.57 329.246L411.487 398.325L379.156 430.733" stroke="#5F2EEA" stroke-width="8" stroke-linecap="round"/>
<path d="M317.469 296.308C317.469 296.308 310.449 305.678 293.696 306.814C276.944 307.95 265.302 295.457 265.302 295.457L165.846 196" stroke="#5F2EEA" stroke-width="8" stroke-linecap="round"/>
<path d="M170.389 91.5112L338.447 259.569" stroke="#1CC8EE" stroke-width="8" stroke-linecap="round"/>
<path d="M176.068 151.706L293.98 269.618" stroke="#5F2EEA" stroke-width="8" stroke-linecap="round" stroke-dasharray="160 45"/>
<path d="M366.126 287.325L422.999 344.198" stroke="#1CC8EE" stroke-width="8" stroke-linecap="round"/>
<path d="M97.4146 329.27C97.4146 329.27 98.9023 341.851 109.112 358.07C119.322 374.289 115.994 386.984 108.053 396.659C100.112 406.334 98.6941 408.041 98.6941 408.041L117.696 427.39L94.7236 450.723" stroke="#1CC8EE" stroke-width="8" stroke-linecap="round"/>
<path d="M207.23 306.18C207.23 306.18 210.893 338.139 198.656 360.332C186.418 382.526 144.087 406.505 144.087 406.505L163.236 425.854L140.085 449.185" stroke="#5F2EEA" stroke-width="8" stroke-linecap="round"/>
<path d="M349.98 407.668L364.588 393.06" stroke="#1CC8EE" stroke-width="8" stroke-linecap="round"/>
<path d="M173.915 254.283C173.915 254.283 141.629 246.762 119.376 261.477C103.163 272.197 101.277 281.015 87.0352 294.29C74.3344 306.13 65.3945 315.498 49.1711 323.066C31.6513 331.238 4 328.951 4 328.951" stroke="#5F2EEA" stroke-width="8" stroke-linecap="round"/>
<path d="M80.0405 251.566C69.9993 261.174 64.4647 275.787 44.9119 284.896C25.3591 294.005 10.6841 289.659 10.6841 289.659" stroke="#1CC8EE" stroke-width="8" stroke-linecap="round"/>
<path d="M137.394 4L339.694 206.3" stroke="#5F2EEA" stroke-width="8" stroke-linecap="round"/>
<path d="M445.075 130.819C424.596 111.436 385.465 98.6369 357.307 119.482C330.61 142.156 320.397 174.851 338.473 206.16" stroke="#5F2EEA" stroke-width="8" stroke-linecap="round"/>
<path d="M417.128 187.698C402.951 187.698 391.458 175.868 391.458 161.273" stroke="#5F2EEA" stroke-width="8" stroke-linecap="round"/>
<path d="M445.063 130.633L458.653 115.218V168.068" stroke="#5F2EEA" stroke-width="8" stroke-linecap="round"/>
<path d="M417.128 187.741V206.022L441.169 223.938L458.653 211.141V165.803" stroke="#5F2EEA" stroke-width="8" stroke-linecap="round"/>
<path d="M434.083 155.55L439.665 161.132" stroke="#1CC8EE" stroke-width="8" stroke-linecap="round"/>
</svg>
